# xmcd
#
# Track frame offsets: 
#        150
#        18512
#        40232
#        65902
#        97497
#        114737
#        139377
#        167425
#        189795
#        211937
#        243942
#
# Disc length: 3727 seconds
#
# Revision: 5
# Processed by: cddbd v1.5.2PL0 Copyright (c) Steve Scherf et al.
# Submitted via: ExactAudioCopy v0.99pb4
#
DISCID=9f0e8d0b
DTITLE=Manfredo Fest - Jungle Cat - DMP 1989
DYEAR=1989
DGENRE=World
TTITLE0=Dig this Samba
TTITLE1=O Morro
TTITLE2=Bossa Blues Nº 2
TTITLE3=Jungle Cat
TTITLE4=Bridges
TTITLE5=No More Blues
TTITLE6=Stella by Starlight
TTITLE7=Clearwater Sunset
TTITLE8=Cooling Off
TTITLE9=Slaughter on Tenth Avenue
TTITLE10=Hermeto
EXTD=1989 YEAR: 1989
EXTT0=
EXTT1=
EXTT2=
EXTT3=
EXTT4=
EXTT5=
EXTT6=
EXTT7=
EXTT8=
EXTT9=
EXTT10=
PLAYORDER=
